<svg xmlns="http://www.w3.org/2000/svg" viewBox="0 0 145 145"><rect width="145" height="145" rx="12" fill="#3a506b"/><path d="M67.11,46.55a17,17,0,0,0-7.91-5.8q8.73-3.8,8.73-16.33c0-5.65-1.57-9.92-4.59-12.92A21.47,21.47,0,0,1,51.8,19.88a7,7,0,0,1,.58.48,8.77,8.77,0,0,1,2.21,6.32,9.39,9.39,0,0,1-2.11,6.47,7.76,7.76,0,0,1-6.11,2.36H38.79a15.69,15.69,0,0,1-17.17,9.34V77.31a3.55,3.55,0,0,0,1.64,2.88,6.83,6.83,0,0,0,4.21,1.23H49.24q9.44,0,15-5.19t5.54-16.59V57.48Q69.78,50.3,67.11,46.55Zm-10.68,12q0,11.2-10,11.19H34.87V46h11.6q4.93,0,7.45,2.57t2.51,8.32Z" fill="#5bc0be"/><path d="M21.62 120.12V100a1.69 1.69 0 0 1 .89-1.48 4.42 4.42 0 0 1 2.37-.52 3.62 3.62 0 0 1 2.07.57 1.73 1.73 0 0 1 .84 1.5v1.55a7.23 7.23 0 0 1 6.74-3.92 5.89 5.89 0 0 1 3.85 1.42 8.32 8.32 0 0 1 2.53 3.73A9.46 9.46 0 0 1 44.26 99a8 8 0 0 1 4.37-1.31 8.59 8.59 0 0 1 6.37 2.77 10.44 10.44 0 0 1 2.72 7.54v12.1a1.81 1.81 0 0 1-1 1.43 4.08 4.08 0 0 1-2.32.66 4 4 0 0 1-2.27-.66 1.81 1.81 0 0 1-1-1.42v-12.05a4.62 4.62 0 0 0-1.23-3.39 3.94 3.94 0 0 0-2.9-1.25 3.81 3.81 0 0 0-2.83 1.25A4.61 4.61 0 0 0 43 108v12.17a1.64 1.64 0 0 1-1 1.53 5 5 0 0 1-2.35.51 4.72 4.72 0 0 1-2.27-.53 1.65 1.65 0 0 1-1-1.5v-12.12a4.52 4.52 0 0 0-1.25-3.31 4 4 0 0 0-2.94-1.27 3.76 3.76 0 0 0-2.81 1.22 4.65 4.65 0 0 0-1.17 3.36v12.07a1.81 1.81 0 0 1-1 1.43 4.1 4.1 0 0 1-2.32.66 4 4 0 0 1-2.32-.64 1.78 1.78 0 0 1-.95-1.46zm37.48 10.44q0-2.9 1.7-2.88a7.89 7.89 0 0 0 4.7-1.68q2.32-1.72 2.58-5.72L59.3 101.6a2.37 2.37 0 0 1-.2-.86 2.67 2.67 0 0 1 1.51-2.18 5.38 5.38 0 0 1 2.88-1q1.53 0 1.9 1.1l6.13 15.14 5-15.14a1.61 1.61 0 0 1 1.74-1.11 5.6 5.6 0 0 1 2.91 1 2.75 2.75 0 0 1 1.58 2.25 1.93 1.93 0 0 1-.15.77l-7.46 19.06-.87 2.25q-.6 1.74-.9 2.4-.28.66-1 2.07a10.58 10.58 0 0 1-1.23 2q-.54.64-1.5 1.58a6.72 6.72 0 0 1-2 1.38 14.27 14.27 0 0 1-2.43.77 13.76 13.76 0 0 1-3.11.33 3.66 3.66 0 0 1-2.25-.59 2.86 2.86 0 0 1-.75-2.27zm22.04-9.06a3.61 3.61 0 0 1 0-4.9 3.21 3.21 0 0 1 4.7 0 3.51 3.51 0 0 1 0 4.88 3.07 3.07 0 0 1-2.31 1 3.14 3.14 0 0 1-2.39-.98zm8.3-31.86a2.54 2.54 0 0 1 1.09-2.06 4.18 4.18 0 0 1 2.67-.85 3.64 3.64 0 0 1 2.43.85 2.58 2.58 0 0 1 0 4.09 3.58 3.58 0 0 1-2.43.88 4.11 4.11 0 0 1-2.67-.88 2.57 2.57 0 0 1-1.09-2.03zm.57 30.48V100a1.7 1.7 0 0 1 .88-1.48 4.15 4.15 0 0 1 2.3-.52 4.27 4.27 0 0 1 2.28.56 1.69 1.69 0 0 1 .91 1.48v20.12a1.81 1.81 0 0 1-1 1.43 3.82 3.82 0 0 1-2.23.66 3.78 3.78 0 0 1-2.23-.64 1.79 1.79 0 0 1-.91-1.49zm9.33-7.92V108a10.72 10.72 0 0 1 2.68-7.3 8.24 8.24 0 0 1 6.41-3.06 7 7 0 0 1 4 1.13 8 8 0 0 1 2.63 2.78V88.77a1.67 1.67 0 0 1 .94-1.48 4.59 4.59 0 0 1 2.37-.56 4.47 4.47 0 0 1 2.35.56 1.68 1.68 0 0 1 .92 1.48v31.36a1.79 1.79 0 0 1-.94 1.45 4.07 4.07 0 0 1-2.32.64 3.35 3.35 0 0 1-2.07-.67 1.85 1.85 0 0 1-.89-1.44v-1.5a7.17 7.17 0 0 1-2.78 2.86 7.92 7.92 0 0 1-10.54-2 10.91 10.91 0 0 1-2.76-7.26zm6.6 0a4.64 4.64 0 0 0 1.33 3.22 4.1 4.1 0 0 0 3.11 1.44 4.5 4.5 0 0 0 3.22-1.39 3.79 3.79 0 0 0 1.42-2.38V108a4.23 4.23 0 0 0-1.4-3.29 4.63 4.63 0 0 0-3.19-1.27 4.23 4.23 0 0 0-3.17 1.39 4.46 4.46 0 0 0-1.33 3.17z" fill="#fff"/><path d="M74.18 17.53a5.12 5.12 0 0 1 2.18-4.13 8.42 8.42 0 0 1 5.38-1.72 7.31 7.31 0 0 1 4.89 1.72 5.18 5.18 0 0 1 0 8.22 7.19 7.19 0 0 1-4.89 1.77 8.27 8.27 0 0 1-5.38-1.77 5.16 5.16 0 0 1-2.18-4.09zm.87 59.67V36.74a3.41 3.41 0 0 1 1.78-3 8.34 8.34 0 0 1 4.54-1.13A8.59 8.59 0 0 1 86 33.76a3.39 3.39 0 0 1 1.83 3V77.2a3.65 3.65 0 0 1-1.93 2.88 8.36 8.36 0 0 1-9 .05 3.61 3.61 0 0 1-1.85-2.93zM94.63 65V15.74a3.37 3.37 0 0 1 2.05-2.89 9 9 0 0 1 4.52-1.17 9.31 9.31 0 0 1 4.67 1.14 3.28 3.28 0 0 1 2 2.82v17H120a2.79 2.79 0 0 1 2.47 1.56 7.78 7.78 0 0 1 0 7.35 2.78 2.78 0 0 1-2.47 1.56h-12.12v21.4q0 2.84 1.28 4 1.28 1.16 4.47 1.17h4a5.21 5.21 0 0 1 4.16 1.72 6 6 0 0 1 1.49 4.08 6.17 6.17 0 0 1-1.49 4.19 5.21 5.21 0 0 1-4.16 1.72h-4q-19 .01-19-16.4z" fill="#5bc0be"/></svg>