<svg xmlns="http://www.w3.org/2000/svg" viewBox="0 0 454 345.27"><defs><style>.cls-1{fill:#fff;}</style></defs><title>Asset 1</title><g id="Layer_2" data-name="Layer 2"><g id="Layer_1-2" data-name="Layer 1"><path class="cls-1" d="M230.91.35a21.92,21.92,0,0,0-7.82,0L3.91,48.11A5.2,5.2,0,0,0,0,53V292.3a3.07,3.07,0,0,0,3.9,3.12l218.76-49.17a21.45,21.45,0,0,1,7.81,0L379.39,279a3.08,3.08,0,0,0,3.91-3.14V109.71a5.11,5.11,0,0,0-3.92-4.79l-28.13-5.69a3.15,3.15,0,0,0-3.92,3.21V233.31a3,3,0,0,1-3.89,3.07L319,230.56a5.33,5.33,0,0,1-3.89-4.93V95.16a5.15,5.15,0,0,0-3.92-4.82l-26.9-5.63a3.12,3.12,0,0,0-3.92,3.18V218a3.11,3.11,0,0,1-3.91,3.17l-28.15-6a5.18,5.18,0,0,1-3.91-4.83V78.46a5.19,5.19,0,0,0-3.91-4.85l-9.18-2a21.75,21.75,0,0,0-7.81,0L74.61,104.84a5.23,5.23,0,0,0-3.9,4.87v26.92a3.09,3.09,0,0,0,3.91,3.14l131.12-28.83a3.09,3.09,0,0,1,3.91,3.14V141a5.22,5.22,0,0,1-3.91,4.86L74.61,174.68a5.22,5.22,0,0,0-3.91,4.86v26.92a3.09,3.09,0,0,0,3.91,3.14l131.12-28.83a3.09,3.09,0,0,1,3.91,3.14v26.39a5.22,5.22,0,0,1-3.91,4.86L39.88,251.79A3.08,3.08,0,0,1,36,248.65V82.06a5.18,5.18,0,0,1,3.91-4.83l183.2-39.07a22.41,22.41,0,0,1,7.82,0l183.2,39.07A5.18,5.18,0,0,1,418,82.06v201.5a5.11,5.11,0,0,0,3.92,4.79L450.08,294a3.15,3.15,0,0,0,3.92-3.21V53a5.2,5.2,0,0,0-3.91-4.85Z"/><path class="cls-1" d="M226.62,344.92a22.15,22.15,0,0,0,7.82,0L375,314.6c2.15-.46,2.15-1.24,0-1.72L233,281.16a21.15,21.15,0,0,0-7.8,0L86,312.87c-2.15.49-2.14,1.27,0,1.73Z"/></g></g></svg>