<svg xmlns="http://www.w3.org/2000/svg" viewBox="0 0 103.47 120.18"><defs><style>.cls-1{fill:#bc0900;}</style></defs><g id="Layer_2" data-name="Layer 2"><g id="Layer_1-2" data-name="Layer 1"><path class="cls-1" d="M98.53,57,80.08,40.48a13.84,13.84,0,0,0,6-4.15c4.77-5.68,4.15-13.87-1.47-19.49C79.92,12.19,79.71,12,73.4,7.41,57.83-3.94,37.33-2.07,25.72,11.77l-.18.22A34,34,0,0,0,12.13,70.92L22.6,79.85a14.05,14.05,0,0,0-4.88,3.54h0l-.27.29h0l-.08.1h0c-4.5,5.64-3.85,13.91,1.57,19.33,3.4,3.4,3.55,3.51,11.52,9.48a36.92,36.92,0,0,0,22.14,7.58A33.17,33.17,0,0,0,78.2,108.27a34,34,0,0,0,7.54-27.15,13.73,13.73,0,0,0,5,.47A14,14,0,0,0,98.53,57ZM68.69,13.88c5.92,4.31,5.92,4.31,10.23,8.62,2.24,2.24,3.3,5.94,1,8.69a6,6,0,0,1-8.44.74L61,23.1a14.28,14.28,0,0,0-1.84-1.3L56,18.93l-.09-.08a33.76,33.76,0,0,0-17.17-7.61C47.59,6.26,59.26,7,68.69,13.88Zm3.38,89.25c-9,10.73-24.82,12-36.8,3.07-7.67-5.75-7.67-5.75-10.66-8.73-2.22-2.22-3.25-6-1-8.73a6,6,0,0,1,8.45-.67l4,3.26,7,5.92a13.83,13.83,0,0,0,8.92,3.26c.41,0,.82,0,1.24-.06a14.16,14.16,0,0,0,4.19-1A14,14,0,0,0,63,95.22,14.23,14.23,0,0,0,60.9,75.48L44.32,61.57l-12-10.18-.07-.11L31.85,51l-1.61-1.37a16,16,0,0,1-1.3-1.46,6,6,0,0,1,.74-7.38,6.27,6.27,0,0,1,8.4-.25L74.33,72.87A26,26,0,0,1,72.07,103.13Zm22-31.63a6,6,0,0,1-8.41.77L80.5,67.66,43.36,34.47l-.1-.08a14.48,14.48,0,0,0-5.33-2.83A14.06,14.06,0,0,0,25.11,34.1a12.63,12.63,0,0,0-1.21,1.11A13.88,13.88,0,0,0,20,45.66a14.11,14.11,0,0,0,4.63,9.63c.12.11.22.22.34.32l.58.49c.31.28.6.57.93.82a14.05,14.05,0,0,0,2.18,2l.52.42,9.92,8.32L55.88,81.93a5.92,5.92,0,0,1,.73,8.33l-.11.13a5.8,5.8,0,0,1-2.61,1.77,5.54,5.54,0,0,1-1.16.23A6,6,0,0,1,48.26,91l-7-5.78L17.29,64.81a26,26,0,0,1-3.2-36.63,25.94,25.94,0,0,1,16-9,25.51,25.51,0,0,1,3.9-.3,26,26,0,0,1,16.65,6l3.84,3.44L93.24,63l.1.08A6,6,0,0,1,94.07,71.5Z"/></g></g></svg>