<svg xmlns="http://www.w3.org/2000/svg" viewBox="0 0 283.85 120.18"><defs><style>.cls-1{fill:#fff;}</style></defs><g id="Layer_2" data-name="Layer 2"><g id="Layer_1-2" data-name="Layer 1"><path class="cls-1" d="M116.73,59.83a2.36,2.36,0,0,1-.51-.67,1.27,1.27,0,0,1,.24-.82L119,53.91a1,1,0,0,1,.93-.53,1.44,1.44,0,0,1,.88.21,9,9,0,0,0,.77.51c.48.3,1.08.63,1.79,1a20.42,20.42,0,0,0,2.37,1,8,8,0,0,0,2.64.45,3.91,3.91,0,0,0,2.64-.9,2.93,2.93,0,0,0,1-2.29,4,4,0,0,0-1.39-3,13,13,0,0,0-4.1-2.38,34.3,34.3,0,0,1-3.55-1.7,16.47,16.47,0,0,1-3.35-2.45,12,12,0,0,1-2.48-3.33,9.34,9.34,0,0,1-1-4.29,10.41,10.41,0,0,1,.77-3.89,9.81,9.81,0,0,1,2.32-3.41,11.41,11.41,0,0,1,3.84-2.4,14.43,14.43,0,0,1,5.38-.91,16.15,16.15,0,0,1,3.89.45,21.35,21.35,0,0,1,3.28,1.1,18.23,18.23,0,0,1,2.55,1.33c.73.46,1.29.83,1.68,1.12a.9.9,0,0,1,.48.85,1.66,1.66,0,0,1-.16.85l-2.72,4.11a1.88,1.88,0,0,1-.85.69.91.91,0,0,1-1,0l-.93-.61c-.52-.34-1.13-.7-1.84-1.1a15.72,15.72,0,0,0-2.34-1,7.34,7.34,0,0,0-2.51-.46,3.56,3.56,0,0,0-2.4.83,2.44,2.44,0,0,0-1,1.89A3.59,3.59,0,0,0,126,38.27a15.28,15.28,0,0,0,4.5,2.48c1,.43,2.18,1,3.44,1.6a16.87,16.87,0,0,1,3.52,2.4,12.76,12.76,0,0,1,2.72,3.43,9.82,9.82,0,0,1,1.09,4.72,10.22,10.22,0,0,1-.85,4.05A10.8,10.8,0,0,1,138,60.47a12.74,12.74,0,0,1-4,2.5,13.84,13.84,0,0,1-5.28,1,20.09,20.09,0,0,1-4.63-.48,20.36,20.36,0,0,1-3.5-1.12A13.07,13.07,0,0,1,118.17,61,12.11,12.11,0,0,1,116.73,59.83Z"/><path class="cls-1" d="M145.67,27.11a.94.94,0,0,1,.29-.72,1,1,0,0,1,.72-.3h6.39a1,1,0,0,1,1,1V62.39a1,1,0,0,1-1,1h-6.39a1,1,0,0,1-.72-.29,1,1,0,0,1-.29-.72Z"/><path class="cls-1" d="M164.8,26.41a.94.94,0,0,1,.34-.61,1,1,0,0,1,.62-.24h.85a1.31,1.31,0,0,1,.51.14.76.76,0,0,1,.4.39l12.36,23H180l12.36-23a.7.7,0,0,1,.4-.39,1.23,1.23,0,0,1,.51-.14h.85a.94.94,0,0,1,.61.24,1,1,0,0,1,.35.61l6,35.82a.89.89,0,0,1-.21.85,1.11,1.11,0,0,1-.8.32h-6.29a1.08,1.08,0,0,1-1-.85l-2.4-16.47h-.11l-9,17.26a.83.83,0,0,1-.4.43,1.09,1.09,0,0,1-.51.16h-1a1,1,0,0,1-.53-.16.82.82,0,0,1-.37-.43l-9-17.26h-.11l-2.34,16.47a1.06,1.06,0,0,1-.32.58.93.93,0,0,1-.69.27h-6.29a1.09,1.09,0,0,1-.8-.32.89.89,0,0,1-.21-.85Z"/><path class="cls-1" d="M205.78,27.11a1,1,0,0,1,1-1h12.84a11.73,11.73,0,0,1,4.64.94,12,12,0,0,1,3.81,2.53,11.72,11.72,0,0,1,2.56,3.76,11.36,11.36,0,0,1,.93,4.55,11.69,11.69,0,0,1-.93,4.67,12.64,12.64,0,0,1-2.56,3.81,11.76,11.76,0,0,1-3.78,2.58,11.54,11.54,0,0,1-4.61.93h-5.6V62.39a1,1,0,0,1-1,1h-6.29a1,1,0,0,1-1-1Zm13.37,15a4.12,4.12,0,0,0,3-1.2,4,4,0,0,0,1.25-3,3.6,3.6,0,0,0-1.25-2.82,4.27,4.27,0,0,0-3-1.12h-5.06v8.15Z"/><path class="cls-1" d="M235.94,27.11a1,1,0,0,1,1-1h12.42a12.46,12.46,0,0,1,4.42.78,12,12,0,0,1,3.65,2.1,9.82,9.82,0,0,1,2.48,3.15,8.5,8.5,0,0,1,.91,3.89,6.75,6.75,0,0,1-.61,2.85,10.83,10.83,0,0,1-1.55,2.4,12.66,12.66,0,0,1-2,1.89,13.61,13.61,0,0,1-2,1.28A17.49,17.49,0,0,1,257,45.57a11,11,0,0,1,2.32,1.79,9.54,9.54,0,0,1,1.79,2.5,7.19,7.19,0,0,1,.72,3.25,9.08,9.08,0,0,1-.94,4.13,10,10,0,0,1-2.5,3.25,11.75,11.75,0,0,1-3.68,2.14,13,13,0,0,1-4.5.77H237a1,1,0,0,1-1-1Zm12.47,14.12a3.55,3.55,0,0,0,2.64-1.12,3.74,3.74,0,0,0,1.09-2.72,3.4,3.4,0,0,0-1.09-2.61,3.77,3.77,0,0,0-2.64-1h-4.16v7.46Zm.69,14.55a3.78,3.78,0,0,0,2.7-1.12,3.73,3.73,0,0,0,1.14-2.77,2.87,2.87,0,0,0-.4-1.49,4,4,0,0,0-1-1.18,5.35,5.35,0,0,0-1.39-.77,4.5,4.5,0,0,0-1.57-.29h-4.32v7.62Z"/><path class="cls-1" d="M264.29,60a1,1,0,0,1,.11-1.33L268,55.14a1.22,1.22,0,0,1,.72-.3.9.9,0,0,1,.72.3,4.9,4.9,0,0,0,1.07.8,3.52,3.52,0,0,0,1.65.32,3,3,0,0,0,2.13-1,4.16,4.16,0,0,0,1-3V27.11a1,1,0,0,1,1-1h6.5a1,1,0,0,1,1,1V52.26a12.75,12.75,0,0,1-.91,5,10.39,10.39,0,0,1-6.13,5.94,12.68,12.68,0,0,1-4.42.77,10,10,0,0,1-3.12-.45,11.05,11.05,0,0,1-2.34-1.07,8.35,8.35,0,0,1-1.65-1.28A9.24,9.24,0,0,1,264.29,60Z"/><path class="cls-1" d="M119.07,72.88a.59.59,0,0,1,.17-.32.48.48,0,0,1,.38-.14h.5a.53.53,0,0,1,.52.31l6.78,14.55h.1l6.78-14.55a.53.53,0,0,1,.52-.31h.49a.49.49,0,0,1,.39.14.59.59,0,0,1,.17.32l3.64,20.72a.62.62,0,0,1-.09.52.6.6,0,0,1-.47.19h-2.8a.51.51,0,0,1-.37-.16.77.77,0,0,1-.22-.31l-1.82-11.68h-.09l-5.39,12.11a.51.51,0,0,1-.53.34h-.55a.54.54,0,0,1-.53-.34L121.2,82.16h-.1l-1.78,11.68a.69.69,0,0,1-.19.31.52.52,0,0,1-.37.16H116c-.46,0-.65-.24-.59-.71Z"/><path class="cls-1" d="M153.29,83.55A11,11,0,0,1,160,73.3a11.12,11.12,0,0,1,8.67,0,11.41,11.41,0,0,1,3.53,2.37,11.11,11.11,0,0,1,0,15.72,11.38,11.38,0,0,1-3.53,2.36,11.36,11.36,0,0,1-8.67,0,11.18,11.18,0,0,1-3.51-2.36,11,11,0,0,1-3.22-7.84Zm4,0a6.88,6.88,0,0,0,.55,2.74,7,7,0,0,0,3.76,3.76,7,7,0,0,0,5.49,0,7.17,7.17,0,0,0,2.26-1.51,7,7,0,0,0,1.53-2.25,7,7,0,0,0,0-5.49,7.06,7.06,0,0,0-1.53-2.26A7.25,7.25,0,0,0,167.1,77a6.79,6.79,0,0,0-5.49,0,7.18,7.18,0,0,0-3.76,3.8A6.93,6.93,0,0,0,157.3,83.55Z"/><path class="cls-1" d="M190.59,73.31a.58.58,0,0,1,.58-.58h7.06a7.43,7.43,0,0,1,2.58.43,6.46,6.46,0,0,1,2.06,1.2,5.46,5.46,0,0,1,1.38,1.82,5.35,5.35,0,0,1,.49,2.25,4.45,4.45,0,0,1-.32,1.68,5.91,5.91,0,0,1-.84,1.42,7,7,0,0,1-1.09,1.09,5.16,5.16,0,0,1-1.14.71,5.56,5.56,0,0,1,1.31.6A6.32,6.32,0,0,1,204,85a5.35,5.35,0,0,1,1,1.48,4.34,4.34,0,0,1,.41,1.9,5.5,5.5,0,0,1-.53,2.39,6,6,0,0,1-1.43,1.88,7,7,0,0,1-2.13,1.23,7.53,7.53,0,0,1-2.63.45h-7.47a.58.58,0,0,1-.58-.59Zm7.27,8.48a2.53,2.53,0,0,0,1.92-.8,2.82,2.82,0,0,0,.73-2,2.52,2.52,0,0,0-.73-1.89,2.67,2.67,0,0,0-1.92-.73h-3.29v5.4Zm.44,8.88a2.7,2.7,0,0,0,2-.8,2.76,2.76,0,0,0,.8-2,2.33,2.33,0,0,0-.26-1.08,2.61,2.61,0,0,0-.71-.84,3.37,3.37,0,0,0-1-.56,3.52,3.52,0,0,0-1.15-.2h-3.36v5.49Z"/><path class="cls-1" d="M220.71,73.31a.58.58,0,0,1,.58-.58h2.87a.58.58,0,0,1,.59.58V93.72a.58.58,0,0,1-.59.59h-2.87a.58.58,0,0,1-.58-.59Z"/><path class="cls-1" d="M241.45,73.31a.58.58,0,0,1,.59-.58h2.84a.53.53,0,0,1,.41.17.57.57,0,0,1,.17.41v17.3h7.86a.54.54,0,0,1,.42.17.57.57,0,0,1,.17.41v2.53a.61.61,0,0,1-.17.42.57.57,0,0,1-.42.17H242a.58.58,0,0,1-.59-.59Z"/><path class="cls-1" d="M268.12,73.31a.57.57,0,0,1,.17-.41.53.53,0,0,1,.41-.17h12.55a.54.54,0,0,1,.42.17.57.57,0,0,1,.17.41v2.53a.61.61,0,0,1-.17.42.57.57,0,0,1-.42.16h-9.12v5.06h7.61a.59.59,0,0,1,.42.17.57.57,0,0,1,.17.42v2.56a.57.57,0,0,1-.17.41.55.55,0,0,1-.42.17h-7.61v5.4h9.12a.54.54,0,0,1,.42.17.57.57,0,0,1,.17.41v2.53a.61.61,0,0,1-.17.42.57.57,0,0,1-.42.17H268.7a.57.57,0,0,1-.41-.17.61.61,0,0,1-.17-.42Z"/><path class="cls-1" d="M98.53,57,80.08,40.48a13.84,13.84,0,0,0,6-4.15c4.77-5.68,4.15-13.87-1.47-19.49C79.92,12.19,79.71,12,73.4,7.41,57.83-3.94,37.33-2.07,25.72,11.77l-.18.22A34,34,0,0,0,12.13,70.92L22.6,79.85a14.05,14.05,0,0,0-4.88,3.54h0l-.27.29h0l-.08.1h0c-4.5,5.64-3.85,13.91,1.57,19.33,3.4,3.4,3.55,3.51,11.52,9.48a36.92,36.92,0,0,0,22.14,7.58A33.17,33.17,0,0,0,78.2,108.27a34,34,0,0,0,7.54-27.15,13.73,13.73,0,0,0,5,.47A14,14,0,0,0,98.53,57ZM68.69,13.88c5.92,4.31,5.92,4.31,10.23,8.62,2.24,2.24,3.3,5.94,1,8.69a6,6,0,0,1-8.44.74L61,23.1a14.28,14.28,0,0,0-1.84-1.3L56,18.93l-.09-.08a33.76,33.76,0,0,0-17.17-7.61C47.59,6.26,59.26,7,68.69,13.88Zm3.38,89.25c-9,10.73-24.82,12-36.8,3.07-7.67-5.75-7.67-5.75-10.66-8.73-2.22-2.22-3.25-6-1-8.73a6,6,0,0,1,8.45-.67l4,3.26,7,5.92a13.83,13.83,0,0,0,8.92,3.26c.41,0,.82,0,1.24-.06a14.16,14.16,0,0,0,4.19-1A14,14,0,0,0,63,95.22,14.23,14.23,0,0,0,60.9,75.48L44.32,61.57l-12-10.18-.07-.11L31.85,51l-1.61-1.37a16,16,0,0,1-1.3-1.46,6,6,0,0,1,.74-7.38,6.27,6.27,0,0,1,8.4-.25L74.33,72.87A26,26,0,0,1,72.07,103.13Zm22-31.63a6,6,0,0,1-8.41.77L80.5,67.66,43.36,34.47l-.1-.08a14.48,14.48,0,0,0-5.33-2.83A14.06,14.06,0,0,0,25.11,34.1a12.63,12.63,0,0,0-1.21,1.11A13.88,13.88,0,0,0,20,45.66a14.11,14.11,0,0,0,4.63,9.63c.12.11.22.22.34.32l.58.49c.31.28.6.57.93.82a14.05,14.05,0,0,0,2.18,2l.52.42,9.92,8.32L55.88,81.93a5.92,5.92,0,0,1,.73,8.33l-.11.13a5.8,5.8,0,0,1-2.61,1.77,5.54,5.54,0,0,1-1.16.23A6,6,0,0,1,48.26,91l-7-5.78L17.29,64.81a26,26,0,0,1-3.2-36.63,25.94,25.94,0,0,1,16-9,25.51,25.51,0,0,1,3.9-.3,26,26,0,0,1,16.65,6l3.84,3.44L93.24,63l.1.08A6,6,0,0,1,94.07,71.5Z"/></g></g></svg>